<svg viewBox="0 0 760 300" xmlns="http://www.w3.org/2000/svg" font-family="sans-serif">
<rect x="0" y="0" width="760" height="300" fill="#ffffff"/>
<line x1="62" y1="222.3" x2="728" y2="222.3" stroke="#eeeeee"/>
<text x="56" y="225.3" font-size="10" fill="#534AB7" text-anchor="end">-2</text>
<line x1="62" y1="185.7" x2="728" y2="185.7" stroke="#eeeeee"/>
<text x="56" y="188.7" font-size="10" fill="#534AB7" text-anchor="end">-1</text>
<line x1="62" y1="149.1" x2="728" y2="149.1" stroke="#eeeeee"/>
<text x="56" y="152.1" font-size="10" fill="#534AB7" text-anchor="end">0</text>
<line x1="62" y1="112.4" x2="728" y2="112.4" stroke="#eeeeee"/>
<text x="56" y="115.4" font-size="10" fill="#534AB7" text-anchor="end">1</text>
<line x1="62" y1="75.8" x2="728" y2="75.8" stroke="#eeeeee"/>
<text x="56" y="78.8" font-size="10" fill="#534AB7" text-anchor="end">2</text>
<line x1="62.0" y1="250" x2="62.0" y2="254" stroke="#888"/>
<text x="62.0" y="266" font-size="10" fill="#444" text-anchor="middle">0</text>
<line x1="228.9" y1="250" x2="228.9" y2="254" stroke="#888"/>
<text x="228.9" y="266" font-size="10" fill="#444" text-anchor="middle">20</text>
<line x1="395.8" y1="250" x2="395.8" y2="254" stroke="#888"/>
<text x="395.8" y="266" font-size="10" fill="#444" text-anchor="middle">40</text>
<line x1="562.8" y1="250" x2="562.8" y2="254" stroke="#888"/>
<text x="562.8" y="266" font-size="10" fill="#444" text-anchor="middle">60</text>
<line x1="62" y1="48" x2="62" y2="250" stroke="#888"/>
<line x1="62" y1="250" x2="728" y2="250" stroke="#888"/>
<polyline points="62.0,144.3 63.7,159.7 65.3,175.0 67.0,189.6 68.7,203.2 70.3,215.6 72.0,226.5 73.7,235.5 75.4,242.5 77.0,247.3 78.7,249.8 80.4,250.0 82.0,247.8 83.7,243.3 85.4,236.6 87.0,227.8 88.7,217.2 90.4,205.0 92.0,191.5 93.7,177.1 95.4,161.9 97.1,146.5 98.7,131.1 100.4,116.1 102.1,101.9 103.7,88.9 105.4,77.2 107.1,67.2 108.7,59.1 110.4,53.1 112.1,49.4 113.7,48.0 115.4,49.0 117.1,52.3 118.8,57.8 120.4,65.5 122.1,75.2 123.8,86.6 125.4,99.4 127.1,113.4 128.8,128.2 130.4,143.6 132.1,159.0 133.8,174.2 135.4,188.8 137.1,202.5 138.8,215.0 140.5,225.9 142.1,235.0 143.8,242.1 145.5,247.0 147.1,249.6 148.8,249.9 150.5,247.8 152.1,243.5 153.8,236.9 155.5,228.2 157.1,217.7 158.8,205.7 160.5,192.2 162.2,177.8 163.8,162.7 165.5,147.3 167.2,131.9 168.8,117.0 170.5,102.8 172.2,89.6 173.8,77.9 175.5,67.8 177.2,59.6 178.8,53.5 180.5,49.7 182.2,48.2 183.8,49.0 185.5,52.1 187.2,57.6 188.9,65.1 190.5,74.6 192.2,85.9 193.9,98.6 195.5,112.6 197.2,127.3 198.9,142.6 200.5,158.0 202.2,173.2 203.9,187.9 205.5,201.6 207.2,214.1 208.9,225.1 210.6,234.3 212.2,241.6 213.9,246.6 215.6,249.4 217.2,249.8 218.9,247.9 220.6,243.7 222.2,237.3 223.9,228.8 225.6,218.4 227.2,206.5 228.9,193.1 230.6,178.8 232.3,163.8 233.9,148.4 235.6,133.0 237.3,118.1 238.9,103.8 240.6,90.6 242.3,78.8 243.9,68.6 245.6,60.3 247.3,54.0 248.9,50.0 250.6,48.3 252.3,49.0 254.0,51.9 255.6,57.2 257.3,64.6 259.0,74.0 260.6,85.1 262.3,97.7 264.0,111.5 265.6,126.2 267.3,141.4 269.0,156.8 270.6,172.0 272.3,186.7 274.0,200.5 275.7,213.1 277.3,224.2 279.0,233.5 280.7,240.9 282.3,246.2 284.0,249.1 285.7,249.8 287.3,248.0 289.0,244.0 290.7,237.8 292.3,229.5 294.0,219.3 295.7,207.4 297.4,194.3 299.0,180.0 300.7,165.1 302.4,149.7 304.0,134.4 305.7,119.4 307.4,105.1 309.0,91.8 310.7,79.8 312.4,69.5 314.0,61.1 315.7,54.6 317.4,50.4 319.1,48.5 320.7,48.9 322.4,51.7 324.1,56.8 325.7,63.9 327.4,73.1 329.1,84.1 330.7,96.5 332.4,110.2 334.1,124.8 335.7,140.0 337.4,155.4 339.1,170.6 340.8,185.3 342.4,199.2 344.1,211.9 345.8,223.1 347.4,232.6 349.1,240.2 350.8,245.6 352.4,248.8 354.1,249.7 355.8,248.2 357.4,244.4 359.1,238.4 360.8,230.3 362.5,220.3 364.1,208.6 365.8,195.6 367.5,181.4 369.1,166.6 370.8,151.3 372.5,136.0 374.1,120.9 375.8,106.6 377.5,93.2 379.1,81.1 380.8,70.6 382.5,62.0 384.2,55.3 385.8,50.9 387.5,48.7 389.2,48.9 390.8,51.4 392.5,56.2 394.2,63.2 395.8,72.2 397.5,82.9 399.2,95.2 400.8,108.8 402.5,123.2 404.2,138.3 405.8,153.7 407.5,168.9 409.2,183.7 410.9,197.6 412.5,210.4 414.2,221.8 415.9,231.5 417.5,239.3 419.2,245.0 420.9,248.4 422.5,249.5 424.2,248.3 425.9,244.8 427.5,239.0 429.2,231.2 430.9,221.4 432.6,210.0 434.2,197.1 435.9,183.1 437.6,168.3 439.2,153.1 440.9,137.8 442.6,122.7 444.2,108.3 445.9,94.8 447.6,82.6 449.2,71.9 450.9,63.0 452.6,56.1 454.3,51.4 455.9,49.0 457.6,48.9 459.3,51.1 460.9,55.7 462.6,62.3 464.3,71.1 465.9,81.6 467.6,93.7 469.3,107.1 470.9,121.4 472.6,136.4 474.3,151.7 476.0,167.0 477.6,181.8 479.3,195.8 481.0,208.8 482.6,220.4 484.3,230.3 486.0,238.3 487.6,244.3 489.3,248.0 491.0,249.4 492.6,248.5 494.3,245.3 496.0,239.8 497.7,232.2 499.3,222.7 501.0,211.5 502.7,198.8 504.3,184.9 506.0,170.3 507.7,155.1 509.3,139.8 511.0,124.7 512.7,110.2 514.3,96.6 516.0,84.2 517.7,73.3 519.4,64.2 521.0,57.1 522.7,52.1 524.4,49.3 526.0,48.9 527.7,50.8 529.4,55.0 531.0,61.4 532.7,69.8 534.4,80.1 536.0,92.0 537.7,105.2 539.4,119.4 541.1,134.3 542.7,149.6 544.4,164.8 546.1,179.7 547.7,193.9 549.4,207.0 551.1,218.7 552.7,228.9 554.4,237.2 556.1,243.4 557.7,247.5 559.4,249.2 561.1,248.6 562.8,245.7 564.4,240.6 566.1,233.3 567.8,224.1 569.4,213.1 571.1,200.7 572.8,187.0 574.4,172.5 576.1,157.4 577.8,142.1 579.4,127.0 581.1,112.4 582.8,98.6 584.5,86.1 586.1,75.0 587.8,65.6 589.5,58.1 591.1,52.8 592.8,49.7 594.5,49.0 596.1,50.5 597.8,54.4 599.5,60.4 601.1,68.5 602.8,78.5 604.5,90.1 606.2,103.1 607.8,117.2 609.5,132.0 611.2,147.2 612.8,162.4 614.5,177.4 616.2,191.6 617.8,204.9 619.5,216.9 621.2,227.3 622.8,235.9 624.5,242.4 626.2,246.8 627.8,248.9 629.5,248.7 631.2,246.2 632.9,241.4 634.5,234.5 636.2,225.6 637.9,214.9 639.5,202.7 641.2,189.2 642.9,174.8 644.5,159.9 646.2,144.6 647.9,129.5 649.5,114.8 651.2,100.9 652.9,88.1 654.6,76.8 656.2,67.1 657.9,59.4 659.6,53.7 661.2,50.2 662.9,49.1 664.6,50.2 666.2,53.7 667.9,59.4 669.6,67.1 671.2,76.8 672.9,88.1 674.6,100.9 676.3,114.8 677.9,129.4 679.6,144.6 681.3,159.8 682.9,174.8 684.6,189.2 686.3,202.6 687.9,214.8 689.6,225.5 691.3,234.4 692.9,241.3 694.6,246.1 696.3,248.6 698.0,248.8 699.6,246.7 701.3,242.3 703.0,235.8 704.6,227.2 706.3,216.9 708.0,204.9 709.6,191.7 711.3,177.4 713.0,162.6 714.6,147.4 716.3,132.2 718.0,117.4 719.7,103.4 721.3,90.4 723.0,78.8 724.7,68.9 726.3,60.7 728.0,54.7" fill="none" stroke="#534AB7" stroke-width="1.3"/>
<polyline points="62.0,149.1 63.7,150.6 65.3,152.1 67.0,153.6 68.7,155.0 70.3,156.3 72.0,157.7 73.7,158.9 75.4,160.1 77.0,161.1 78.7,162.1 80.4,163.0 82.0,163.8 83.7,164.4 85.4,164.9 87.0,165.3 88.7,165.6 90.4,165.8 92.0,165.8 93.7,165.6 95.4,165.4 97.1,165.0 98.7,164.5 100.4,163.8 102.1,163.1 103.7,162.2 105.4,161.2 107.1,160.2 108.7,159.0 110.4,157.8 112.1,156.5 113.7,155.1 115.4,153.7 117.1,152.3 118.8,150.8 120.4,149.3 122.1,147.8 123.8,146.3 125.4,144.9 127.1,143.5 128.8,142.1 130.4,140.8 132.1,139.5 133.8,138.3 135.4,137.2 137.1,136.2 138.8,135.3 140.5,134.5 142.1,133.9 143.8,133.3 145.5,132.9 147.1,132.6 148.8,132.4 150.5,132.4 152.1,132.5 153.8,132.7 155.5,133.1 157.1,133.6 158.8,134.2 160.5,134.9 162.2,135.8 163.8,136.7 165.5,137.7 167.2,138.9 168.8,140.1 170.5,141.4 172.2,142.7 173.8,144.1 175.5,145.6 177.2,147.1 178.8,148.5 180.5,150.0 182.2,151.5 183.8,153.0 185.5,154.4 187.2,155.8 188.9,157.1 190.5,158.4 192.2,159.6 193.9,160.7 195.5,161.7 197.2,162.6 198.9,163.4 200.5,164.1 202.2,164.7 203.9,165.2 205.5,165.5 207.2,165.7 208.9,165.7 210.6,165.7 212.2,165.5 213.9,165.1 215.6,164.7 217.2,164.1 218.9,163.4 220.6,162.6 222.2,161.6 223.9,160.6 225.6,159.5 227.2,158.3 228.9,157.0 230.6,155.7 232.3,154.3 233.9,152.9 235.6,151.4 237.3,149.9 238.9,148.4 240.6,146.9 242.3,145.5 243.9,144.0 245.6,142.7 247.3,141.3 248.9,140.0 250.6,138.8 252.3,137.7 254.0,136.6 255.6,135.7 257.3,134.9 259.0,134.1 260.6,133.5 262.3,133.1 264.0,132.7 265.6,132.5 267.3,132.4 269.0,132.4 270.6,132.6 272.3,132.9 274.0,133.4 275.7,133.9 277.3,134.6 279.0,135.4 280.7,136.3 282.3,137.3 284.0,138.4 285.7,139.6 287.3,140.8 289.0,142.2 290.7,143.6 292.3,145.0 294.0,146.4 295.7,147.9 297.4,149.4 299.0,150.9 300.7,152.3 302.4,153.8 304.0,155.2 305.7,156.6 307.4,157.9 309.0,159.1 310.7,160.2 312.4,161.3 314.0,162.3 315.7,163.1 317.4,163.9 319.1,164.5 320.7,165.0 322.4,165.4 324.1,165.6 325.7,165.7 327.4,165.7 329.1,165.6 330.7,165.3 332.4,164.9 334.1,164.4 335.7,163.7 337.4,162.9 339.1,162.0 340.8,161.1 342.4,160.0 344.1,158.8 345.8,157.6 347.4,156.3 349.1,154.9 350.8,153.5 352.4,152.0 354.1,150.6 355.8,149.1 357.4,147.6 359.1,146.1 360.8,144.7 362.5,143.2 364.1,141.9 365.8,140.6 367.5,139.3 369.1,138.2 370.8,137.1 372.5,136.1 374.1,135.2 375.8,134.4 377.5,133.8 379.1,133.3 380.8,132.8 382.5,132.6 384.2,132.4 385.8,132.4 387.5,132.5 389.2,132.8 390.8,133.2 392.5,133.7 394.2,134.3 395.8,135.0 397.5,135.9 399.2,136.9 400.8,137.9 402.5,139.1 404.2,140.3 405.8,141.6 407.5,143.0 409.2,144.4 410.9,145.8 412.5,147.3 414.2,148.8 415.9,150.2 417.5,151.7 419.2,153.2 420.9,154.6 422.5,156.0 424.2,157.3 425.9,158.6 427.5,159.7 429.2,160.8 430.9,161.8 432.6,162.8 434.2,163.5 435.9,164.2 437.6,164.8 439.2,165.2 440.9,165.5 442.6,165.7 444.2,165.7 445.9,165.7 447.6,165.4 449.2,165.1 450.9,164.6 452.6,164.0 454.3,163.3 455.9,162.4 457.6,161.5 459.3,160.5 460.9,159.3 462.6,158.1 464.3,156.8 465.9,155.5 467.6,154.1 469.3,152.7 470.9,151.2 472.6,149.7 474.3,148.2 476.0,146.7 477.6,145.3 479.3,143.8 481.0,142.5 482.6,141.1 484.3,139.8 486.0,138.6 487.6,137.5 489.3,136.5 491.0,135.6 492.6,134.8 494.3,134.1 496.0,133.5 497.7,133.0 499.3,132.7 501.0,132.5 502.7,132.4 504.3,132.5 506.0,132.7 507.7,133.0 509.3,133.4 511.0,134.0 512.7,134.7 514.3,135.5 516.0,136.4 517.7,137.5 519.4,138.6 521.0,139.8 522.7,141.0 524.4,142.4 526.0,143.8 527.7,145.2 529.4,146.6 531.0,148.1 532.7,149.6 534.4,151.1 536.0,152.6 537.7,154.0 539.4,155.4 541.1,156.7 542.7,158.0 544.4,159.2 546.1,160.4 547.7,161.4 549.4,162.4 551.1,163.2 552.7,163.9 554.4,164.6 556.1,165.0 557.7,165.4 559.4,165.6 561.1,165.7 562.8,165.7 564.4,165.5 566.1,165.2 567.8,164.8 569.4,164.3 571.1,163.6 572.8,162.8 574.4,161.9 576.1,160.9 577.8,159.8 579.4,158.6 581.1,157.4 582.8,156.1 584.5,154.7 586.1,153.3 587.8,151.8 589.5,150.3 591.1,148.9 592.8,147.4 594.5,145.9 596.1,144.5 597.8,143.0 599.5,141.7 601.1,140.4 602.8,139.2 604.5,138.0 606.2,136.9 607.8,136.0 609.5,135.1 611.2,134.3 612.8,133.7 614.5,133.2 616.2,132.8 617.8,132.5 619.5,132.4 621.2,132.4 622.8,132.6 624.5,132.8 626.2,133.2 627.8,133.7 629.5,134.4 631.2,135.2 632.9,136.0 634.5,137.0 636.2,138.1 637.9,139.2 639.5,140.5 641.2,141.8 642.9,143.1 644.5,144.6 646.2,146.0 647.9,147.5 649.5,149.0 651.2,150.5 652.9,151.9 654.6,153.4 656.2,154.8 657.9,156.2 659.6,157.5 661.2,158.7 662.9,159.9 664.6,161.0 666.2,162.0 667.9,162.9 669.6,163.6 671.2,164.3 672.9,164.9 674.6,165.3 676.3,165.6 677.9,165.7 679.6,165.7 681.3,165.6 682.9,165.4 684.6,165.0 686.3,164.5 687.9,163.9 689.6,163.2 691.3,162.3 692.9,161.4 694.6,160.3 696.3,159.2 698.0,157.9 699.6,156.6 701.3,155.3 703.0,153.9 704.6,152.4 706.3,151.0 708.0,149.5 709.6,148.0 711.3,146.5 713.0,145.1 714.6,143.6 716.3,142.3 718.0,140.9 719.7,139.7 721.3,138.5 723.0,137.4 724.7,136.4 726.3,135.5 728.0,134.7" fill="none" stroke="#BA7517" stroke-width="1.3"/>
<text x="395.0" y="18" font-size="12" fill="#222" text-anchor="middle">Same 1x tone, slower and smaller as the load grows (80 ms windows)</text>
<line x1="66" y1="34" x2="82" y2="34" stroke="#534AB7" stroke-width="2"/>
<text x="86" y="37.5" font-size="10" fill="#444">early t≈1 s (ω high)</text>
<line x1="204" y1="34" x2="220" y2="34" stroke="#BA7517" stroke-width="2"/>
<text x="224" y="37.5" font-size="10" fill="#444">late t≈10 s (ω low)</text>
<text x="395.0" y="296" font-size="11" fill="#333" text-anchor="middle">time within window [ms]</text>
<text x="13" y="149.0" font-size="11" fill="#534AB7" transform="rotate(-90 13 149.0)" text-anchor="middle">accelY [m/s²]</text>
</svg>
